<svg xmlns="http://www.w3.org/2000/svg" width="1080" height="1350" viewBox="0 0 1080 1350">
  <defs>
    <linearGradient id="field" x1="0" y1="0" x2="1" y2="1"><stop offset="0" stop-color="#d9e2c6"/><stop offset="1" stop-color="#eef2d8"/></linearGradient>
  </defs>
  <rect width="1080" height="1350" fill="#f6f0e3"/>
  <text x="72" y="96" fill="#1b3527" font-family="Arial, sans-serif" font-size="25" font-weight="700" letter-spacing="5" data-check="brand">TU MARCA</text>
  <text x="741" y="96" fill="#506558" font-family="Arial, sans-serif" font-size="21" font-weight="700" letter-spacing="2" data-check="series">COLECCIÓN / 01</text>
  <rect x="72" y="154" width="936" height="700" rx="34" fill="url(#field)"/>
  <circle cx="674" cy="470" r="290" fill="#eff4db"/>
  <!-- Replace this vector motif with the user's real <image> asset when available. -->
  <path d="M355 292 Q 365 240 425 229 L 635 197 Q 693 188 712 243 L 803 676 Q 818 729 767 755 L 507 800 Q 435 813 405 749 Z" fill="#234834"/>
  <circle cx="572" cy="501" r="141" fill="none" stroke="#d7e98e" stroke-width="8"/>
  <rect x="683" y="189" width="293" height="62" rx="31" fill="#ddef85"/>
  <text x="711" y="229" fill="#1b3527" font-family="Arial, sans-serif" font-size="22" font-weight="700" letter-spacing="2" data-check="tag">HECHO PARA VOS</text>
  <text x="72" y="971" fill="#183124" font-family="Arial, sans-serif" font-size="84" font-weight="700" letter-spacing="-4" data-check="headline">Un nuevo básico.</text>
  <text x="72" y="1046" fill="#183124" font-family="Arial, sans-serif" font-size="30" data-check="description">Diseñado para acompañarte todos los días.</text>
  <line x1="72" y1="1216" x2="1008" y2="1216" stroke="#183124" stroke-width="2"/>
  <text x="72" y="1272" fill="#183124" font-family="Arial, sans-serif" font-size="23" data-check="footer">Descubrí la colección</text>
  <text x="794" y="1272" fill="#183124" font-family="Arial, sans-serif" font-size="24" font-weight="700" data-check="cta">CONOCÉ MÁS ↗</text>
</svg>
